<svg id="Layer_1" data-name="Layer 1" xmlns="http://www.w3.org/2000/svg" viewBox="0 0 270.25 218.54"><defs><style>.cls-1{fill:#fff;}</style></defs><title>globe_white</title><path id="path9024" class="cls-1" d="M170.44,93c55.32,1.08,102.06,43.82,106.69,100.14,4.93,60.07-39.75,113-99.82,117.91-3.78.28-17.47.47-17.47.47-20.45-18.84-39.72-49.43-47.73-80a28.17,28.17,0,0,0,12.79-2.19c1,3.39,3.58,11.83,5.93,16.07h31V208.6H121.94l-12.79-15.29a210.19,210.19,0,0,1,7.64-34.62H81.39l-8.74-9.05A108.64,108.64,0,0,1,170.44,93Zm4.22,16.38v36.5h27.45C195.17,132.82,185.77,119.09,174.66,109.4Zm-28.55.16A95.21,95.21,0,0,0,91.37,145.9h30.57A134.69,134.69,0,0,1,146.11,109.56Zm15.76.15c-10.47,9.77-19.19,23.47-25.74,36.19h25.74Zm29.94.16a135.53,135.53,0,0,1,24.49,36h28.85a95.74,95.74,0,0,0-53.34-36Zm61.3,48.82H221.6a131.39,131.39,0,0,1,7.18,37.12H263.4c0-.48,0-.93,0-1.41A95.75,95.75,0,0,0,253.11,158.69Zm-45.23,0H174.66v37.12H216A119.76,119.76,0,0,0,207.88,158.69Zm-46,0H130.52a123.3,123.3,0,0,0-7.8,37.12h39.15ZM263.4,208.6H228.78a133.17,133.17,0,0,1-7.33,36.81H253A95.25,95.25,0,0,0,263.4,208.6Zm-47.41,0H174.66v36.81h33.06A120.59,120.59,0,0,0,216,208.6Zm29.48,49.6H216.3A135.36,135.36,0,0,1,191,294.69,94.88,94.88,0,0,0,245.47,258.2Zm-43.68,0H174.66v37.27C185.67,285.84,194.89,271.19,201.79,258.2Zm-39.92,0H135.66c6.52,12.66,15.87,27.09,26.21,36.81Z" transform="translate(-7.25 -93)"/><path id="path9026" class="cls-1" d="M66.21,157.35l49.6,56.46c2.27,2.58,1.83,7.64-3.12,7.64H91c.76,33.9,22.92,62.2,51.32,80.8,4.68,2.44,8,9.32-2.5,8.57C85.18,307,46.11,267.33,34.55,221.61H12.87c-4,.8-8.47-3.85-3.27-9.05l47.57-55.21C59.62,154.2,63.69,154.48,66.21,157.35Z" transform="translate(-7.25 -93)"/></svg>